<svg xmlns="http://www.w3.org/2000/svg" viewBox="0 0 340.000000 250.000000">
<g data-v-0dd9719b="" fill="#ef5b24" class="icon-text-wrapper icon-svg-group iconsvg" transform="translate(-100,64.84854507446289) scale(2.000000,2.00000)"><g class="iconsvg-imagesvg" transform="translate(0,9.589143753051758)"><g><rect fill="#ef5b24" fill-opacity="0" stroke-width="2" x="0" y="0" width="60" height="41.124621310778764" class="image-rect"></rect> <svg filter="url(#colors1293074845)" x="0" y="0" width="60" height="41.124621310778764" filtersec="colorsf4069836312" class="image-svg-svg primary" style="overflow: visible;"><svg xmlns="http://www.w3.org/2000/svg" xmlns:xlink="http://www.w3.org/1999/xlink" version="1.1" x="0px" y="0px" viewBox="4.999896049499512 19.156431198120117 90 61.6871337890625" xml:space="preserve"><path d="M28.5628548,41.1084976c0.1882,0,0.378788-0.0544548,0.5469265-0.1676598  C48.3095398,27.9693565,70.7555161,21.1129494,94.021637,21.1129494c0.5407181,0,0.9782562-0.4380207,0.9782562-0.97826  s-0.4375381-0.9782581-0.9782562-0.9782581c-23.6578064,0-46.4830475,6.9724808-66.0071411,20.1632099  c-0.4480495,0.3023605-0.5655556,0.9104309-0.2631931,1.3584824C27.9404564,40.9575577,28.2485504,41.1084976,28.5628548,41.1084976  z"></path><path d="M94.021637,27.1181583c-21.2885895,0-41.9447517,6.0859318-59.7368279,17.6000576  c-0.4533043,0.2932854-0.5832329,0.8989639-0.2894669,1.3527489c0.1872444,0.2889862,0.5010719,0.4466171,0.8220634,0.4466171  c0.1819878,0,0.3663673-0.0506325,0.5306854-0.1571541C52.8220444,35.0521774,73.1113586,29.0746746,94.021637,29.0746746  c0.5407181,0,0.9782562-0.4380188,0.9782562-0.9782581S94.562355,27.1181583,94.021637,27.1181583z"></path><path d="M94.021637,35.0794067c-16.617981,0-33.1136742,4.0816498-47.7058716,11.803112  c-0.4776649,0.2526817-0.6596565,0.8445091-0.406971,1.3221741c0.1753044,0.331501,0.5144463,0.5206566,0.8655281,0.5206566  c0.1542854,0,0.3109627-0.0363007,0.4566498-0.1136856C61.5413475,41.0387573,77.7217865,37.035923,94.021637,37.035923  c0.5407181,0,0.9782562-0.4380188,0.9782562-0.97826C94.9998932,35.5174255,94.562355,35.0794067,94.021637,35.0794067z"></path><path d="M94.021637,43.0406532c-16.651413,0-33.015274,4.4045525-47.3242188,12.7369499  c-0.4666786,0.2722664-0.6247864,0.8712616-0.352993,1.3374596c0.1819916,0.3123932,0.5096703,0.4862633,0.8464241,0.4862633  c0.1671829,0,0.3362732-0.0429878,0.4915161-0.1327896C61.6922913,49.309536,77.7160492,44.9971733,94.021637,44.9971733  c0.5407181,0,0.9782562-0.4380188,0.9782562-0.97826S94.562355,43.0406532,94.021637,43.0406532z"></path><path d="M94.021637,51.0019035c-17.999382,0-35.2440605,5.4912415-49.8687401,15.8785515  c-0.4404068,0.3133469-0.5440636,0.9238052-0.2311897,1.364212c0.1910667,0.2684479,0.4924736,0.4117508,0.7986565,0.4117508  c0.1958427,0,0.3935966-0.0582809,0.5655556-0.1805573C59.5781441,58.3245125,76.4301758,52.9584198,94.021637,52.9584198  c0.5407181,0,0.9782562-0.437542,0.9782562-0.9782562C94.9998932,51.4394455,94.562355,51.0019035,94.021637,51.0019035z"></path><path d="M43.7497482,55.1700096c0.8397331-1.2524376,0.8941879-2.8421059,0.1423416-4.1489983  c-0.7518425-1.3068924-2.1504478-2.0487099-3.657959-1.9641609l-8.1351204,0.5173111  c-0.6448479,0.0382118-1.2758446-0.2388344-1.6780376-0.7508888L25.3830357,42.41539  c-0.9319248-1.1850853-2.4294052-1.7324905-3.9025269-1.4172325c-1.4755077,0.3109589-2.6238155,1.4115028-2.9978275,2.8717232  l-2.0219574,7.8972435c-0.1614494,0.6295624-0.6223974,1.1397095-1.2323761,1.364212l-7.6517215,2.8105812  c-1.4158001,0.5196991-2.3940587,1.7750053-2.5540767,3.2739182c-0.1595402,1.4998703,0.5321193,2.9319115,1.8055754,3.7382088  l6.8855457,4.3639488c0.5488377,0.3477402,0.891324,0.9438705,0.9161625,1.5934982l0.3090496,8.1451492  c0.0573196,1.5065536,0.9476881,2.824913,2.3243198,3.4401398c0.5196991,0.2331009,1.0680599,0.3467865,1.6116428,0.3467865  c0.8960991,0,1.7793026-0.3095245,2.5015335-0.9075623l6.2774773-5.1998672  c0.5010719-0.4146118,1.1731472-0.5579147,1.7988892-0.3792648l7.84231,2.223053  c1.4506683,0.4136581,2.9801521-0.0277023,3.9904137-1.1473465c1.0107422-1.1186981,1.2935181-2.6844864,0.7375183-4.0859528  l-3.0059509-7.5757713c-0.2397881-0.6047249-0.1667023-1.2887421,0.1948891-1.8294601L43.7497482,55.1700096z   M37.1980896,64.4921265l3.0059471,7.5767288c0.2837334,0.714592,0.1452103,1.48172-0.3701897,2.0520477  c-0.5158806,0.5703354-1.2648582,0.7852859-2.0047646,0.5770264l-7.842308-2.2230606  c-1.2452736-0.3525162-2.5841694-0.0726013-3.5805798,0.7537613l-6.277956,5.1998596  c-0.5918274,0.4910431-1.3627796,0.597084-2.0663795,0.2827835c-0.7021675-0.3143082-1.1387539-0.9601135-1.1674137-1.7291489  l-0.3095284-8.1451492c-0.0492001-1.2944794-0.7317829-2.4800415-1.8246813-3.1716995l-6.8850684-4.3639526  c-0.6496248-0.411747-0.9887671-1.1129608-0.9070864-1.8781776c0.0816808-0.764267,0.5612564-1.3795013,1.2830091-1.6450806  l7.6521988-2.810585c1.2142248-0.4461365,2.1313429-1.4616547,2.4528112-2.7150497l2.0219574-7.8972397  c0.1905899-0.7446823,0.7537575-1.2844429,1.5060787-1.4430275c0.143301-0.0300941,0.2856445-0.044899,0.4260788-0.044899  c0.5961266,0,1.1497402,0.2679672,1.5347385,0.757576l5.0379372,6.407402  c0.8000889,1.018383,2.0491829,1.5848961,3.3403149,1.4941368l8.1351166-0.5168343  c0.7613983-0.0487213,1.4540138,0.3200378,1.8380585,0.9868584c0.3830872,0.6668205,0.3563347,1.4454155-0.0716515,2.0845299  l-4.5382996,6.7713852C36.8665886,61.9280205,36.7213783,63.2884102,37.1980896,64.4921265z"></path></svg></svg> <defs><filter id="colors1293074845"><feColorMatrix type="matrix" values="0 0 0 0 0.93359375  0 0 0 0 0.35546875  0 0 0 0 0.140625  0 0 0 1 0" class="icon-fecolormatrix"></feColorMatrix></filter> <filter id="colorsf4069836312"><feColorMatrix type="matrix" values="0 0 0 0 0.99609375  0 0 0 0 0.99609375  0 0 0 0 0.99609375  0 0 0 1 0" class="icon-fecolormatrix"></feColorMatrix></filter> <filter id="colorsb2432647307"><feColorMatrix type="matrix" values="0 0 0 0 0  0 0 0 0 0  0 0 0 0 0  0 0 0 1 0" class="icon-fecolormatrix"></feColorMatrix></filter></defs></g></g> <g transform="translate(67,0)"><g data-gra="path-name" fill-rule="" class="tp-name iconsvg-namesvg" transform="translate(0,0)"><g transform="scale(1)"><g><path d="M22.27-40.43L22.27-40.43Q26.37-40.63 27.93-39.84L27.93-39.84Q27.93-39.65 27.54-39.26L27.54-39.26Q26.95-38.28 26.95-37.11L26.95-37.11 26.95-34.38 34.96-34.38Q41.21-34.38 42.38-34.77L42.38-34.77 42.38-30.66Q40.82-31.25 35.16-31.05L35.16-31.05 26.95-31.05 26.95-26.17 38.28-26.17Q42.19-26.17 46.09-26.76L46.09-26.76Q46.68-26.76 46.68-26.76L46.68-26.76 46.68-22.27Q46.48-22.27 46.09-22.27L46.09-22.27Q42.97-22.66 38.28-22.66L38.28-22.66 11.72-22.66Q8.01-22.66 4.1-22.27L4.1-22.27Q3.32-22.27 3.13-22.27L3.13-22.27 3.13-26.76Q3.13-26.76 3.91-26.76L3.91-26.76Q8.4-26.17 11.72-26.17L11.72-26.17 22.66-26.17 22.66-30.86 16.99-30.86Q12.7-30.86 8.79-30.47L8.79-30.47Q8.2-30.47 8.01-30.47L8.01-30.47 8.01-34.96Q8.01-34.96 8.59-34.96L8.59-34.96Q12.3-34.38 17.38-34.38L17.38-34.38 22.66-34.38Q22.66-38.67 22.27-40.43ZM14.45-20.51L17.97-22.27Q20.31-19.73 21.48-17.38L21.48-17.38 17.77-15.63Q16.21-18.95 14.45-20.51L14.45-20.51ZM17.19-15.43L27.15-15.43Q28.91-18.16 29.88-22.07L29.88-22.07Q34.57-21.09 34.96-20.31L34.96-20.31Q34.96-20.12 34.38-19.73L34.38-19.73Q32.23-18.16 30.66-15.43L30.66-15.43 33.98-15.43Q37.11-15.43 41.6-15.82L41.6-15.82Q42.38-15.82 42.38-15.82L42.38-15.82 42.38-11.52Q42.19-11.52 41.41-11.52L41.41-11.52Q37.5-11.91 33.79-11.91L33.79-11.91 26.76-11.91 26.76-7.03 38.87-7.03Q41.41-7.03 45.7-7.62L45.7-7.62Q46.48-7.62 46.68-7.62L46.68-7.62 46.68-3.13Q43.55-3.71 38.67-3.71L38.67-3.71 26.76-3.71 26.76-0.39Q26.76 1.56 26.95 3.91L26.95 3.91Q27.15 4.69 27.15 4.88L27.15 4.88 22.07 4.88Q22.07 4.69 22.27 3.91L22.27 3.91Q22.66 1.37 22.66-0.39L22.66-0.39 22.66-3.52 11.72-3.52Q7.62-3.52 3.71-3.13L3.71-3.13Q3.13-3.13 2.93-3.13L2.93-3.13 2.93-7.42Q3.13-7.42 3.91-7.42L3.91-7.42Q7.81-7.03 11.72-7.03L11.72-7.03 22.66-7.03 22.66-11.91 18.16-11.91Q9.38-11.91 7.42-11.52L7.42-11.52 7.42-16.02Q8.79-15.43 17.19-15.43L17.19-15.43ZM56.05-36.91L60.35-38.67Q63.09-34.18 64.65-29.88L64.65-29.88 59.77-28.13Q58.4-33.79 56.05-36.91L56.05-36.91ZM69.92-32.62L69.92-37.11Q70.12-37.11 70.7-37.11L70.7-37.11Q73.83-36.72 77.15-36.72L77.15-36.72 85.74-36.72Q89.45-36.72 92.38-37.11L92.38-37.11Q92.97-37.11 92.97-37.11L92.97-37.11 92.97-32.62Q92.97-32.62 92.38-32.62L92.38-32.62Q89.65-33.01 85.94-33.01L85.94-33.01 77.34-33.01Q73.63-33.01 70.7-32.62L70.7-32.62Q70.12-32.62 69.92-32.62L69.92-32.62ZM65.82-22.07L65.82-26.56Q65.82-26.56 66.41-26.56L66.41-26.56Q69.34-26.17 72.66-26.17L72.66-26.17 89.06-26.17Q92.77-26.17 95.7-26.76L95.7-26.76Q96.29-26.76 96.29-26.76L96.29-26.76 96.29-22.07Q96.09-22.07 95.51-22.07L95.51-22.07Q92.77-22.46 89.06-22.46L89.06-22.46 81.45-22.46Q81.05-21.88 79.88-19.73L79.88-19.73Q76.76-13.28 74.61-9.96L74.61-9.96 87.7-10.74Q87.3-11.33 85.94-13.28L85.94-13.28Q84.18-15.82 83.2-17.19L83.2-17.19 87.11-19.14Q89.45-16.02 92.97-10.16L92.97-10.16Q94.34-8.01 94.92-6.84L94.92-6.84 90.43-4.69Q89.84-5.86 89.06-7.42L89.06-7.42Q76.95-6.64 70.7-5.47L70.7-5.47Q69.92-5.47 69.92-5.47L69.92-5.47 67.97-9.57Q67.97-9.77 68.55-9.96L68.55-9.96Q70.51-10.16 71.68-11.91L71.68-11.91Q74.61-16.6 76.95-22.46L76.95-22.46 72.46-22.46Q69.92-22.46 66.8-22.07L66.8-22.07Q66.02-22.07 65.82-22.07L65.82-22.07ZM52.93-19.34L52.93-24.22Q53.13-24.22 53.91-24.22L53.91-24.22Q56.25-23.83 58.2-23.83L58.2-23.83Q61.72-23.83 63.28-24.22L63.28-24.22Q63.67-24.22 63.67-23.83L63.67-23.83Q63.28-22.27 63.28-18.55L63.28-18.55 63.28-5.08Q72.85 0.98 97.46-2.34L97.46-2.34Q97.46-2.34 97.27-1.95L97.27-1.95Q95.9 0.2 95.12 2.73L95.12 2.73Q92.77 2.73 88.09 2.73L88.09 2.73Q74.02 2.73 69.53 1.37L69.53 1.37Q67.77 0.98 64.65-0.39L64.65-0.39Q62.11-1.56 61.33-1.56L61.33-1.56Q58.98-0.98 56.45 3.13L56.45 3.13 51.95 0Q54.88-2.34 59.18-5.27L59.18-5.27 59.18-19.73 58.59-19.73Q56.05-19.73 53.71-19.34L53.71-19.34Q53.13-19.34 52.93-19.34L52.93-19.34ZM141.8-38.67L141.8-38.67Q141.41-36.72 141.41-31.84L141.41-31.84 141.41-27.73Q141.41-21.48 141.8-20.51L141.8-20.51Q139.26-20.9 134.57-20.9L134.57-20.9 127.93-20.9 127.93-16.41 136.33-16.41Q140.43-16.41 143.36-16.8L143.36-16.8 143.36-12.5Q141.41-12.89 136.33-12.89L136.33-12.89 127.93-12.89 127.93-8.79 134.77-8.79Q139.45-8.79 141.41-9.18L141.41-9.18 141.41-5.08Q140.43-5.27 134.77-5.27L134.77-5.27 127.93-5.27 127.93-0.78 139.45-0.78Q142.97-0.78 145.9-1.37L145.9-1.37Q146.09-1.37 146.29-1.37L146.29-1.37 146.29 2.54Q144.14 2.15 139.65 2.15L139.65 2.15 109.96 2.15Q105.08 2.15 103.13 2.54L103.13 2.54 103.13-1.17Q106.84-0.78 110.16-0.78L110.16-0.78 123.63-0.78 123.63-5.27 116.41-5.27Q111.72-5.27 110.55-4.88L110.55-4.88 110.55-9.18Q111.91-8.79 116.21-8.79L116.21-8.79 123.63-8.79 123.63-12.89 110.74-12.89Q108.01-8.98 106.64-7.23L106.64-7.23Q104.69-8.98 102.54-9.38L102.54-9.38Q107.62-12.5 110.55-20.31L110.55-20.31Q114.45-19.73 115.43-18.95L115.43-18.95Q115.43-18.75 114.84-18.16L114.84-18.16Q113.67-17.38 112.89-16.21L112.89-16.21 123.63-16.21 123.63-20.9 115.43-20.9Q110.16-20.9 108.2-20.51L108.2-20.51Q108.2-20.9 108.4-22.07L108.4-22.07Q108.59-24.61 108.59-26.76L108.59-26.76 108.59-33.2Q108.59-36.52 108.2-38.67L108.2-38.67Q111.52-38.28 115.04-38.28L115.04-38.28 132.81-38.28Q138.09-38.28 141.8-38.67ZM137.11-34.57L112.89-34.57 112.89-30.86 137.11-30.86 137.11-34.57ZM137.11-27.73L112.89-27.73 112.89-24.02 137.11-24.02 137.11-27.73Z" transform="translate(-2.930000066757202, 40.47040557861328)"></path></g> <!----> <!----> <!----> <!----> <!----> <!----> <!----></g></g> <g data-gra="path-slogan" fill-rule="" class="tp-slogan iconsvg-slogansvg" fill="#1686cb" transform="translate(34.834999084472656,51.35041046142578)"><!----> <!----> <g transform="scale(1, 1)"><g transform="scale(1)"><path d="M0.89-8.58L2.06-8.58L2.06-1.03L6.42-1.03L6.42 0L0.89 0L0.89-8.58ZM13.22-3.19L13.22-8.58L14.39-8.58L14.39-3.05Q14.25 0.05 10.88 0.14L10.88 0.14Q7.73 0.05 7.59-2.86L7.59-2.86L7.59-8.58L8.77-8.58L8.77-3.19Q8.81-0.84 10.92-0.80L10.92-0.80Q13.22-0.84 13.22-3.19L13.22-3.19ZM23.34-6.05L23.34-6.05L22.22-6.05Q21.80-7.78 19.83-7.83L19.83-7.83Q17.11-7.69 17.02-4.36L17.02-4.36Q17.02-0.80 19.88-0.80L19.88-0.80Q21.84-0.84 22.31-3.19L22.31-3.19L23.44-3.19Q22.92 0.05 19.64 0.14L19.64 0.14Q15.89 0 15.80-4.31L15.80-4.31Q15.98-8.63 19.83-8.81L19.83-8.81Q22.88-8.72 23.34-6.05ZM27.33-4.31L25.97-3.05L25.97 0L24.80 0L24.80-8.58L25.97-8.58L25.97-4.41L30.14-8.58L31.78-8.58L28.17-5.11L31.88 0L30.33 0L27.33-4.31ZM39.70-8.58L36.47-3.47L36.47 0L35.30 0L35.30-3.47L32.06-8.58L33.42-8.58L35.86-4.45L38.34-8.58L39.70-8.58ZM50.34-6.09L50.34-6.09L49.27-6.09Q49.17-7.73 47.11-7.83L47.11-7.83Q45.19-7.78 45.19-6.33L45.19-6.33Q45.19-5.39 46.22-5.25L46.22-5.25L48.66-4.69Q50.58-4.22 50.58-2.34L50.58-2.34Q50.53 0.05 47.20 0.14L47.20 0.14Q45.38 0.14 44.63-0.61L44.63-0.61Q43.69-1.31 43.73-2.77L43.73-2.77L44.86-2.77Q44.91-0.80 47.20-0.75L47.20-0.75Q49.45-0.80 49.50-2.20L49.50-2.20Q49.69-3.38 47.63-3.75L47.63-3.75L45.84-4.13Q44.02-4.64 44.02-6.19L44.02-6.19Q44.16-8.72 47.02-8.81L47.02-8.81Q50.25-8.81 50.34-6.09ZM54.23-7.59L51.33-7.59L51.33-8.58L58.27-8.58L58.27-7.59L55.36-7.59L55.36 0L54.23 0L54.23-7.59ZM64.97 0L64.13-2.48L60.66-2.48L59.77 0L58.59 0L61.83-8.58L63.14-8.58L66.23 0L64.97 0ZM62.39-7.31L61.03-3.52L63.70-3.52L62.44-7.31L62.39-7.31ZM71.39-3.70L68.58-3.70L68.58 0L67.41 0L67.41-8.58L71.39-8.58Q74.25-8.58 74.25-6.28L74.25-6.28Q74.25-4.88 73.03-4.22L73.03-4.22Q74.06-3.94 74.06-2.58L74.06-2.58L74.16-1.03Q74.11-0.38 74.58-0.19L74.58-0.19L74.58 0L73.13 0Q72.98-0.61 72.94-2.16L72.94-2.16Q72.98-3.70 71.39-3.70L71.39-3.70ZM71.48-7.64L68.58-7.64L68.58-4.69L71.30-4.69Q73.03-4.69 73.03-6.19L73.03-6.19Q73.03-7.64 71.48-7.64L71.48-7.64Z" transform="translate(-0.890625, 8.8125)"></path></g></g></g></g></g>
</svg>